<?xml version="1.0" standalone="no"?>
<!DOCTYPE svg PUBLIC "-//W3C//DTD SVG 20010904//EN"
 "http://www.w3.org/TR/2001/REC-SVG-20010904/DTD/svg10.dtd">
<svg version="1.0" xmlns="http://www.w3.org/2000/svg"
 width="1024.000000pt" height="1024.000000pt" viewBox="0 0 1024.000000 1024.000000"
 preserveAspectRatio="xMidYMid meet">
<metadata>
Created by potrace 1.14, written by Peter Selinger 2001-2017
</metadata>
<g transform="translate(0.000000,1024.000000) scale(0.100000,-0.100000)"
fill="#000000" stroke="none">
<path d="M5157 10164 c-1 -1 -16 -4 -33 -7 -40 -6 -154 -57 -154 -68 0 -5 -7
-9 -16 -9 -8 0 -32 -11 -52 -25 -20 -14 -39 -25 -43 -25 -7 0 -250 -138 -266
-152 -7 -6 -13 -7 -13 -3 0 5 -8 2 -17 -6 -10 -8 -31 -22 -48 -31 -16 -9 -142
-79 -279 -157 -137 -78 -253 -141 -258 -141 -4 0 -8 -5 -8 -12 0 -6 -3 -9 -6
-5 -4 3 -25 -6 -48 -21 -22 -15 -59 -37 -81 -47 -22 -11 -42 -23 -45 -26 -3
-3 -41 -25 -85 -50 -44 -24 -89 -49 -100 -56 -11 -6 -36 -19 -55 -29 -19 -10
-42 -23 -50 -29 -8 -7 -40 -26 -70 -42 -112 -62 -225 -127 -230 -132 -3 -3
-12 -7 -20 -9 -8 -2 -16 -8 -18 -13 -2 -5 -9 -9 -17 -9 -7 0 -18 -7 -25 -15
-7 -9 -15 -13 -18 -10 -3 3 -12 -1 -21 -9 -14 -12 -65 -41 -166 -96 -28 -15
-212 -121 -245 -140 -8 -5 -49 -29 -90 -52 -41 -24 -83 -47 -92 -53 -9 -5 -29
-17 -45 -26 -15 -9 -45 -26 -66 -38 -21 -12 -71 -40 -110 -62 -40 -23 -94 -55
-122 -71 -27 -16 -65 -36 -82 -44 -18 -8 -33 -19 -33 -25 0 -5 -4 -8 -9 -5 -5
3 -14 -1 -21 -9 -7 -8 -16 -15 -21 -15 -5 0 -43 -20 -85 -45 -41 -25 -77 -45
-80 -45 -2 0 -25 -13 -51 -29 -92 -56 -138 -82 -155 -88 -10 -3 -18 -9 -18
-14 0 -5 -6 -9 -12 -9 -7 -1 -38 -16 -68 -35 -30 -19 -71 -42 -90 -52 -19 -10
-63 -34 -97 -55 -35 -21 -67 -38 -73 -38 -5 0 -10 -4 -10 -10 0 -5 -6 -10 -14
-10 -8 0 -21 -6 -28 -12 -7 -7 -26 -20 -43 -28 -42 -20 -139 -83 -143 -92 -2
-5 -8 -8 -13 -8 -15 0 -75 -58 -119 -115 -37 -47 -61 -99 -76 -164 -12 -48
-14 -4712 -3 -4761 25 -104 63 -200 81 -200 4 0 8 -7 8 -15 0 -8 3 -15 8 -15
4 0 27 -18 52 -40 57 -51 52 -47 133 -98 38 -23 72 -42 78 -42 5 0 9 -3 9 -8
0 -4 15 -13 32 -21 18 -8 35 -17 38 -21 3 -3 32 -21 65 -40 33 -18 71 -42 84
-52 13 -10 27 -15 32 -12 5 3 9 0 9 -5 0 -6 15 -18 33 -26 36 -17 156 -88 172
-102 6 -5 17 -12 27 -15 9 -4 53 -29 98 -57 45 -28 83 -51 85 -51 4 0 136 -77
205 -120 78 -48 154 -90 161 -90 5 0 9 -4 9 -8 0 -5 16 -14 35 -22 19 -8 35
-17 35 -22 0 -4 7 -8 15 -8 8 0 15 -4 15 -10 0 -5 5 -10 11 -10 5 0 76 -39
157 -87 81 -48 156 -93 167 -99 11 -6 61 -35 110 -64 50 -29 100 -58 112 -64
13 -6 23 -14 23 -18 0 -5 4 -8 10 -8 5 0 124 -67 264 -150 141 -82 260 -150
266 -150 5 0 10 -4 10 -10 0 -5 4 -10 9 -10 10 0 167 -92 188 -110 7 -6 14 -9
15 -8 2 1 14 -5 28 -14 32 -20 150 -88 241 -140 13 -7 26 -15 29 -19 3 -3 21
-13 40 -23 19 -9 58 -31 85 -48 28 -17 64 -38 80 -48 63 -36 211 -121 225
-130 60 -38 172 -100 180 -100 6 0 10 -4 10 -9 0 -5 10 -13 22 -17 12 -3 45
-22 74 -40 30 -19 64 -39 76 -44 13 -6 30 -14 38 -20 83 -54 226 -130 252
-134 7 -1 18 -4 23 -8 46 -28 183 -42 270 -27 56 10 243 89 255 109 3 4 12 10
20 12 8 2 29 13 47 25 17 13 34 23 37 23 3 0 40 20 82 45 41 25 79 45 84 45 4
0 13 7 20 15 7 8 16 13 20 10 5 -3 10 -1 12 3 1 5 28 22 58 39 30 17 83 47
117 67 34 20 66 36 71 36 6 0 12 4 14 8 2 4 50 34 108 67 58 33 114 65 125 72
11 7 27 15 35 19 8 4 116 66 240 137 124 72 245 141 270 155 92 52 107 60 183
106 43 25 82 46 87 46 5 0 15 6 22 13 7 7 27 20 43 29 97 51 171 92 175 98 3
4 12 9 20 13 8 3 38 20 65 36 28 16 72 42 99 56 79 43 91 50 96 55 5 5 41 26
100 57 19 10 37 20 40 23 8 8 43 29 60 37 8 3 27 14 41 24 14 10 29 16 33 12
3 -3 6 -1 6 5 0 7 4 12 10 12 5 0 39 18 75 40 36 22 68 40 70 40 3 0 24 11 46
26 39 24 77 46 149 86 19 11 49 27 65 37 17 10 48 28 70 41 33 19 156 89 345
198 19 11 76 44 125 73 50 28 104 59 120 67 17 8 37 20 45 27 8 7 35 24 60 37
106 59 127 74 169 117 86 89 109 199 57 283 -14 24 -31 50 -38 59 -16 19 -116
86 -188 126 -30 17 -118 67 -195 113 -167 98 -201 118 -238 139 -16 9 -36 21
-45 26 -172 103 -263 155 -271 155 -5 0 -11 3 -13 8 -4 9 -57 41 -80 49 -10 3
-18 9 -18 14 0 5 -4 9 -10 9 -5 0 -62 31 -126 70 -65 38 -119 70 -121 70 -3 0
-24 14 -48 30 -24 17 -50 30 -58 30 -9 0 -17 4 -19 8 -3 7 -68 48 -151 95 -18
9 -50 29 -72 43 -22 14 -48 27 -57 31 -10 3 -18 9 -18 14 0 5 -4 9 -9 9 -5 0
-71 37 -147 81 -264 156 -379 223 -404 236 -14 8 -38 23 -55 33 -16 10 -41 25
-55 33 -14 7 -43 24 -65 37 -96 55 -120 64 -170 64 -50 1 -98 -19 -227 -93
-21 -11 -55 -31 -75 -42 -21 -12 -72 -41 -114 -65 -42 -24 -81 -44 -87 -44 -6
0 -12 -3 -14 -7 -4 -9 -50 -37 -90 -55 -16 -7 -28 -16 -28 -20 0 -4 -9 -8 -19
-8 -11 0 -22 -4 -25 -9 -4 -5 -34 -25 -69 -44 -104 -57 -161 -89 -192 -109
-16 -10 -37 -21 -45 -25 -8 -4 -40 -21 -70 -39 -64 -36 -130 -73 -180 -100
-19 -11 -37 -21 -40 -24 -5 -5 -55 -33 -105 -58 -16 -9 -32 -18 -35 -22 -3 -3
-23 -14 -44 -24 -48 -23 -110 -24 -134 -4 -9 8 -98 62 -197 119 -99 57 -189
109 -200 116 -11 7 -31 18 -45 25 -14 6 -32 17 -40 24 -8 6 -36 23 -62 38
-117 64 -143 79 -148 85 -5 6 -64 39 -135 75 -22 12 -44 27 -48 34 -4 6 -13
12 -19 12 -5 0 -55 27 -110 60 -56 33 -105 60 -109 60 -5 0 -9 5 -9 12 0 6 -3
9 -6 6 -3 -3 -46 18 -95 48 -49 30 -94 54 -99 54 -4 0 -10 3 -12 8 -1 4 -18
19 -36 34 -19 16 -31 28 -28 28 3 0 -1 15 -8 32 -11 26 -13 187 -11 793 2 835
2 831 61 890 31 32 295 195 314 195 4 0 10 3 12 8 3 6 108 71 172 106 23 12
89 53 121 74 11 7 28 15 38 18 9 4 17 10 17 15 0 5 4 9 9 9 7 0 94 49 141 80
34 22 234 140 238 140 2 0 18 10 35 23 18 12 41 27 52 33 42 22 70 39 83 51
32 30 155 47 222 31 58 -14 115 -32 120 -38 5 -6 137 -82 155 -89 6 -2 12 -7
15 -10 8 -10 252 -151 261 -151 5 0 9 -4 9 -9 0 -5 8 -11 18 -15 9 -3 31 -14
47 -23 168 -101 377 -224 405 -239 19 -10 39 -23 45 -27 26 -21 280 -166 283
-162 3 2 18 -3 34 -11 49 -25 94 -13 226 64 68 40 127 72 132 72 6 0 10 5 10
10 0 6 6 10 14 10 8 0 22 7 30 16 9 8 16 13 16 9 0 -3 12 2 28 13 15 11 47 29
71 42 25 12 51 29 59 36 7 8 17 14 22 14 5 0 43 20 84 45 42 25 81 45 86 45 6
0 10 5 10 10 0 6 5 10 11 10 6 0 64 32 130 70 66 39 124 70 130 70 5 0 9 5 9
10 0 6 5 10 11 10 6 0 45 20 86 45 40 25 77 45 82 45 5 0 14 7 21 15 7 9 15
13 18 11 2 -3 24 8 48 25 24 16 44 26 44 22 0 -4 4 -3 8 3 4 6 34 26 67 44 62
35 99 55 163 91 20 12 57 33 81 47 25 14 67 38 93 53 27 16 51 29 53 29 3 0
29 16 59 35 30 19 57 35 60 35 3 0 39 20 80 44 41 24 84 47 95 51 12 3 21 11
21 16 0 5 4 9 9 9 19 0 528 290 555 317 68 68 92 181 55 258 -29 60 -64 91
-179 157 -58 33 -121 70 -140 81 -19 11 -48 28 -65 38 -16 10 -52 30 -80 44
-27 15 -56 32 -63 37 -18 15 -94 58 -114 65 -10 3 -18 9 -18 14 0 5 -4 9 -10
9 -5 0 -76 39 -157 87 -81 47 -173 100 -203 116 -30 17 -57 33 -60 36 -5 6
-20 15 -88 52 -20 11 -50 28 -67 38 -16 10 -46 27 -65 38 -19 11 -55 32 -80
47 -25 15 -53 29 -62 33 -10 3 -18 9 -18 14 0 5 -5 9 -11 9 -6 0 -56 27 -111
60 -54 33 -101 60 -103 60 -9 0 -110 64 -117 74 -4 6 -8 7 -8 2 0 -5 -6 -4
-12 2 -7 5 -29 19 -48 30 -133 76 -388 224 -400 232 -8 6 -23 13 -32 16 -10 4
-18 10 -18 15 0 5 -4 9 -10 9 -5 0 -44 20 -86 45 -41 25 -78 45 -80 45 -3 0
-30 16 -60 35 -30 19 -56 35 -58 35 -3 0 -40 22 -83 48 -43 27 -93 55 -111 63
-17 7 -32 17 -32 21 0 5 -7 8 -15 8 -8 0 -15 3 -15 8 0 4 -15 13 -32 21 -18 8
-55 29 -83 46 -27 18 -70 44 -95 58 -118 66 -145 81 -150 86 -3 3 -30 19 -60
35 -30 16 -62 35 -71 42 -8 8 -23 14 -32 14 -9 0 -17 4 -17 8 0 5 -18 17 -40
28 -22 10 -40 22 -40 25 0 3 -16 11 -35 19 -19 8 -35 17 -35 22 0 4 -7 8 -15
8 -8 0 -15 4 -15 8 0 4 -12 13 -27 19 -31 13 -97 51 -155 89 -21 13 -40 24
-42 24 -3 0 -25 13 -49 30 -72 48 -155 79 -264 96 -41 7 -131 12 -136 8z"/>
</g>
</svg>
