<?xml version="1.0" encoding="utf-8"?>
<!-- Generator: Adobe Illustrator 16.0.0, SVG Export Plug-In . SVG Version: 6.00 Build 0)  -->
<!DOCTYPE svg PUBLIC "-//W3C//DTD SVG 1.1//EN" "http://www.w3.org/Graphics/SVG/1.1/DTD/svg11.dtd">
<svg version="1.1" id="图层_1" xmlns="http://www.w3.org/2000/svg" xmlns:xlink="http://www.w3.org/1999/xlink" x="0px" y="0px" viewBox="-0.4 35.5 55.4 64.4" enable-background="new -0.4 35.5 55.4 64.4" xml:space="preserve">
<path fill-rule="evenodd" clip-rule="evenodd" fill="#80bd01" d="M36.28,61.87c1.098,0.65,1.358,0.255,1.742,0.035
  c0.385-0.221,14.695-8.411,15.606-8.857c0.912-0.446,1.315-1.915,0.114-2.61c-1.201-0.697-25.41-14.721-24.241-14.12
  c1.259,0.646-1.202-0.829-2.626-0.175C25.45,36.797,3.644,49.335,2.098,50.218c-1.545,0.883-2.032,1.731-2.027,2.907
  c0.004,1.176-0.078,27.253,0,28.801c0.078,1.548,0.69,2.052,1.506,2.609c0.816,0.558,22.901,13.505,24.572,14.41
  c1.671,0.907,2.768,0.597,3.853-0.04c1.085-0.639,22.727-13.003,23.593-13.554c0.866-0.551,1.653-1.969-0.157-2.992
  c-1.811-1.022-14.779-8.693-15.279-8.943s-0.796-0.255-1.52,0.151c-0.724,0.408-7.222,4.062-8.013,4.524s-0.904,0.254-1.283,0.033
  c-0.378-0.222-7.085-4.135-7.859-4.571s-0.866-0.656-0.868-1.25c-0.001-0.593-0.018-8.121,0.023-8.998
  c0.04-0.877,0.165-1.074,0.962-1.548c0.797-0.474,6.695-3.978,7.166-4.293c0.47-0.315,1.459-0.345,2.231,0.108
  C29.77,58.024,35.182,61.219,36.28,61.87"/>
</svg>
