<svg xmlns="http://www.w3.org/2000/svg" viewBox="0 0 24 24">
  <path fill="#4AC6C6" d="M12,24L12,24C5.4,24,0,18.6,0,12l0,0C0,5.4,5.4,0,12,0l0,0c6.6,0,12,5.4,12,12l0,0C24,18.6,18.6,24,12,24z"/>
  <path fill="#FFFFFF" d="M11.9,4.5c-4.1,0.1-7.3,3.6-7.3,7.7v5.5c0,1,1.1,1.6,1.9,1.1c0.5-0.3,0.9-0.6,1.8-0.6c1.9,0,1.9,1.3,3.7,1.3s1.9-1.3,3.7-1.3c0.9,0,1.3,0.3,1.8,0.6c0.8,0.5,1.9-0.1,1.9-1.1V12C19.5,7.8,16.1,4.4,11.9,4.5z"/>
  <circle fill="#2A5083" cx="9.5" cy="10.1" r="0.6"/>
  <circle fill="#2A5083" cx="14.5" cy="10.1" r="0.6"/>
  <path fill="#2A5083" d="M12,15.3c1.2,0,2.3-0.8,2.6-1.9c0.1-0.5-0.2-0.9-0.7-0.9h-3.9c-0.5,0-0.8,0.5-0.7,0.9C9.7,14.5,10.8,15.3,12,15.3z"/>
  <path fill="#FF4E4A" d="M12,13.9c-0.7,0-1.2,0.4-1.6,0.9c0.4,0.3,1,0.5,1.6,0.5c0.6,0,1.1-0.2,1.5-0.5C13.2,14.3,12.7,13.9,12,13.9z"/>
  <path fill="#DBF4F4" d="M6.5,18.8c0.4-0.3,0.8-0.6,1.7-0.6v-0.6c0-2.5-1.5-4.6-3.6-5.5c0,0,0,0.1,0,0.1v0.1v5.5C4.5,18.7,5.6,19.3,6.5,18.8z"/>
  <path fill="#DBF4F4" d="M16.3,18.3c0.6,0.1,0.9,0.3,1.3,0.6c0.8,0.5,1.9-0.1,1.9-1.1v-3.5C17.9,15.2,16.8,16.6,16.3,18.3z"/>
</svg>
